<svg xmlns="http://www.w3.org/2000/svg" viewBox="0 0 32 32">
  <defs>
    <radialGradient id="hg" cx="50%" cy="40%" r="60%">
      <stop offset="0%" stop-color="#F9C0D8"/>
      <stop offset="100%" stop-color="#E8A0BC"/>
    </radialGradient>
  </defs>
  <path d="M16 27 C16 27 4 19 4 11.5 C4 7.5 7.5 4 11.5 4 C13.5 4 15.2 4.9 16 6.2 C16.8 4.9 18.5 4 20.5 4 C24.5 4 28 7.5 28 11.5 C28 19 16 27 16 27Z" fill="url(#hg)"/>
  <path d="M16 25 C16 25 5.5 17.5 5.5 11.5 C5.5 8.5 8 6 11 6 C13 6 14.8 7.1 16 8.8 C17.2 7.1 19 6 21 6 C24 6 26.5 8.5 26.5 11.5 C26.5 17.5 16 25 16 25Z" fill="none" stroke="rgba(255,255,255,0.5)" stroke-width="0.8"/>
</svg>
